<svg width="18" height="18" viewBox="0 0 18 18" fill="none" xmlns="http://www.w3.org/2000/svg">
<path d="M9 1.125C7.44248 1.125 5.91992 1.58686 4.62489 2.45218C3.32985 3.31749 2.32049 4.5474 1.72445 5.98637C1.12841 7.42534 0.972461 9.00874 1.27632 10.5363C1.58018 12.0639 2.3302 13.4671 3.43154 14.5685C4.53288 15.6698 5.93607 16.4198 7.46367 16.7237C8.99127 17.0275 10.5747 16.8716 12.0136 16.2756C13.4526 15.6795 14.6825 14.6702 15.5478 13.3751C16.4131 12.0801 16.875 10.5575 16.875 9C16.875 6.91142 16.0453 4.90838 14.5685 3.43153C13.0916 1.95469 11.0886 1.125 9 1.125ZM5.625 14.8387V13.7137C5.6003 13.2387 5.76344 12.7731 6.07918 12.4173C6.39492 12.0616 6.83792 11.8444 7.3125 11.8125H10.6875C11.1631 11.8443 11.607 12.0624 11.9229 12.4194C12.2388 12.7763 12.4012 13.2434 12.375 13.7194V14.8444C11.3504 15.4413 10.1858 15.7557 9 15.7557C7.81421 15.7557 6.64962 15.4413 5.625 14.8444V14.8387ZM13.5 14.0175V13.6744C13.5153 12.9075 13.2294 12.1652 12.7036 11.6067C12.1777 11.0483 11.4539 10.7183 10.6875 10.6875H7.3125C6.54559 10.7168 5.82092 11.0464 5.29479 11.6052C4.76866 12.1639 4.48321 12.9071 4.5 13.6744V14.0062C3.48107 13.0949 2.76287 11.8956 2.44044 10.5671C2.11801 9.23867 2.20655 7.8436 2.69434 6.56655C3.18213 5.28949 4.04618 4.19065 5.17216 3.41541C6.29813 2.64018 7.63296 2.2251 9 2.2251C10.367 2.2251 11.7019 2.64018 12.8278 3.41541C13.9538 4.19065 14.8179 5.28949 15.3057 6.56655C15.7935 7.8436 15.882 9.23867 15.5596 10.5671C15.2371 11.8956 14.5189 13.0949 13.5 14.0062V14.0175Z" fill="#6C6E70"/>
<path d="M9 3.9375C8.44374 3.9375 7.89997 4.10245 7.43746 4.41149C6.97495 4.72053 6.61446 5.15979 6.40159 5.6737C6.18872 6.18762 6.13302 6.75312 6.24154 7.29869C6.35006 7.84426 6.61793 8.3454 7.01126 8.73874C7.4046 9.13207 7.90574 9.39994 8.45131 9.50846C8.99688 9.61698 9.56238 9.56128 10.0763 9.34841C10.5902 9.13554 11.0295 8.77505 11.3385 8.31254C11.6476 7.85003 11.8125 7.30626 11.8125 6.75C11.8125 6.00408 11.5162 5.28871 10.9887 4.76126C10.4613 4.23382 9.74592 3.9375 9 3.9375ZM9 8.4375C8.66625 8.4375 8.33998 8.33853 8.06248 8.1531C7.78497 7.96768 7.56868 7.70413 7.44095 7.39578C7.31323 7.08743 7.27981 6.74813 7.34493 6.42079C7.41004 6.09344 7.57076 5.79276 7.80676 5.55676C8.04276 5.32076 8.34344 5.16004 8.67079 5.09492C8.99813 5.02981 9.33743 5.06323 9.64578 5.19095C9.95413 5.31868 10.2177 5.53497 10.4031 5.81248C10.5885 6.08998 10.6875 6.41624 10.6875 6.75C10.6875 7.19755 10.5097 7.62678 10.1932 7.94324C9.87678 8.25971 9.44755 8.4375 9 8.4375Z" fill="#6C6E70"/>
</svg>
